<svg xmlns="http://www.w3.org/2000/svg" viewBox="0 0 140 180" width="140" height="180" fill="none"><rect x="66" y="8" width="8" height="8" fill="#FF6B1A"/><rect x="66" y="16" width="8" height="8" fill="#FF6B1A"/><rect x="58" y="24" width="8" height="8" fill="#FF6B1A"/><rect x="66" y="24" width="8" height="8" fill="#FF8A3D"/><rect x="58" y="32" width="8" height="8" fill="#FF6B1A"/><rect x="66" y="32" width="8" height="8" fill="#FF8A3D"/><rect x="50" y="40" width="8" height="8" fill="#FF6B1A"/><rect x="58" y="40" width="8" height="8" fill="#FF8A3D"/><rect x="66" y="40" width="8" height="8" fill="#FF8A3D"/><rect x="42" y="48" width="8" height="8" fill="#FF6B1A"/><rect x="50" y="48" width="8" height="8" fill="#FF8A3D"/><rect x="58" y="48" width="8" height="8" fill="#FF8A3D"/><rect x="66" y="48" width="8" height="8" fill="#FFD23D"/><rect x="74" y="48" width="8" height="8" fill="#FF8A3D"/><rect x="82" y="48" width="8" height="8" fill="#FF6B1A"/><rect x="90" y="48" width="8" height="8" fill="#FF6B1A"/><rect x="42" y="56" width="8" height="8" fill="#FF6B1A"/><rect x="50" y="56" width="8" height="8" fill="#FF8A3D"/><rect x="58" y="56" width="8" height="8" fill="#FFD23D"/><rect x="66" y="56" width="8" height="8" fill="#FFD23D"/><rect x="74" y="56" width="8" height="8" fill="#FF8A3D"/><rect x="82" y="56" width="8" height="8" fill="#FF8A3D"/><rect x="90" y="56" width="8" height="8" fill="#FF6B1A"/><rect x="34" y="64" width="8" height="8" fill="#FF6B1A"/><rect x="42" y="64" width="8" height="8" fill="#FF8A3D"/><rect x="50" y="64" width="8" height="8" fill="#FFD23D"/><rect x="58" y="64" width="8" height="8" fill="#FFD23D"/><rect x="66" y="64" width="8" height="8" fill="#FFD23D"/><rect x="74" y="64" width="8" height="8" fill="#FFD23D"/><rect x="82" y="64" width="8" height="8" fill="#FF8A3D"/><rect x="90" y="64" width="8" height="8" fill="#FF6B1A"/><rect x="34" y="72" width="8" height="8" fill="#FF6B1A"/><rect x="42" y="72" width="8" height="8" fill="#FF8A3D"/><rect x="50" y="72" width="8" height="8" fill="#FFD23D"/><rect x="58" y="72" width="8" height="8" fill="#FFD23D"/><rect x="66" y="72" width="8" height="8" fill="#FFD23D"/><rect x="74" y="72" width="8" height="8" fill="#FFD23D"/><rect x="82" y="72" width="8" height="8" fill="#FF8A3D"/><rect x="90" y="72" width="8" height="8" fill="#FF8A3D"/><rect x="34" y="80" width="8" height="8" fill="#FF6B1A"/><rect x="42" y="80" width="8" height="8" fill="#FF8A3D"/><rect x="50" y="80" width="8" height="8" fill="#FF8A3D"/><rect x="58" y="80" width="8" height="8" fill="#FFD23D"/><rect x="66" y="80" width="8" height="8" fill="#FFD23D"/><rect x="74" y="80" width="8" height="8" fill="#FFD23D"/><rect x="82" y="80" width="8" height="8" fill="#FFD23D"/><rect x="90" y="80" width="8" height="8" fill="#FF8A3D"/><rect x="42" y="88" width="8" height="8" fill="#FF6B1A"/><rect x="50" y="88" width="8" height="8" fill="#FF8A3D"/><rect x="58" y="88" width="8" height="8" fill="#FF8A3D"/><rect x="66" y="88" width="8" height="8" fill="#FFD23D"/><rect x="74" y="88" width="8" height="8" fill="#FFD23D"/><rect x="82" y="88" width="8" height="8" fill="#FF8A3D"/><rect x="90" y="88" width="8" height="8" fill="#FF6B1A"/><rect x="50" y="96" width="8" height="8" fill="#FF6B1A"/><rect x="58" y="96" width="8" height="8" fill="#FF8A3D"/><rect x="66" y="96" width="8" height="8" fill="#FF8A3D"/><rect x="74" y="96" width="8" height="8" fill="#FF8A3D"/><rect x="82" y="96" width="8" height="8" fill="#FF6B1A"/><rect x="106" y="24" width="8" height="8" fill="#FF6B1A"/><rect x="98" y="40" width="8" height="8" fill="#FF8A3D"/><rect x="26" y="44" width="8" height="8" fill="#FF6B1A"/><path d="M22 112 L118 112 L106 158 L34 158 Z" fill="#1B1E24"/><path d="M50 118 L47 152 M70 118 L70 152 M90 118 L93 152" stroke="#FF6B1A" stroke-width="3" stroke-linecap="round" opacity="0.45" fill="none"/><rect x="14" y="100" width="112" height="13" rx="5" fill="#2A2F37"/><circle cx="44" cy="164" r="7" fill="#2A2F37"/><circle cx="96" cy="164" r="7" fill="#2A2F37"/></svg>