<svg xmlns="http://www.w3.org/2000/svg" viewBox="0 0 140 180" width="140" height="180" role="img" aria-label="Hellbox: a pixel flame burning inside a dark cart">
<style>
.hbf{opacity:0}
.hbf1{animation:hbf1 .72s linear infinite}
.hbf2{animation:hbf2 .72s linear infinite}
.hbf3{animation:hbf3 .72s linear infinite}
@keyframes hbf1{0%,33.2%{opacity:1}33.3%,100%{opacity:0}}
@keyframes hbf2{0%,33.2%{opacity:0}33.3%,66.5%{opacity:1}66.6%,100%{opacity:0}}
@keyframes hbf3{0%,66.5%{opacity:0}66.6%,100%{opacity:1}}
.hbe{opacity:0;animation:hbe 2.1s linear infinite}
.hbe2{animation-delay:.7s}
.hbe3{animation-delay:1.4s}
@keyframes hbe{0%{opacity:0;transform:translateY(0)}10%{opacity:1}55%{opacity:.9}80%,100%{opacity:0;transform:translateY(-30px)}}
@media (prefers-reduced-motion:reduce){.hbf1{animation:none;opacity:1}.hbf2,.hbf3{animation:none;opacity:0}.hbe{animation:none;opacity:0}}
</style>
<g class="hbf hbf1"><rect x="66" y="8" width="8" height="8" fill="#FF6B1A"/><rect x="66" y="16" width="8" height="8" fill="#FF6B1A"/><rect x="58" y="24" width="8" height="8" fill="#FF6B1A"/><rect x="66" y="24" width="8" height="8" fill="#FF8A3D"/><rect x="58" y="32" width="8" height="8" fill="#FF6B1A"/><rect x="66" y="32" width="8" height="8" fill="#FF8A3D"/><rect x="50" y="40" width="8" height="8" fill="#FF6B1A"/><rect x="58" y="40" width="8" height="8" fill="#FF8A3D"/><rect x="66" y="40" width="8" height="8" fill="#FF8A3D"/><rect x="42" y="48" width="8" height="8" fill="#FF6B1A"/><rect x="50" y="48" width="8" height="8" fill="#FF8A3D"/><rect x="58" y="48" width="8" height="8" fill="#FF8A3D"/><rect x="66" y="48" width="8" height="8" fill="#FFD23D"/><rect x="74" y="48" width="8" height="8" fill="#FF8A3D"/><rect x="82" y="48" width="8" height="8" fill="#FF6B1A"/><rect x="90" y="48" width="8" height="8" fill="#FF6B1A"/><rect x="42" y="56" width="8" height="8" fill="#FF6B1A"/><rect x="50" y="56" width="8" height="8" fill="#FF8A3D"/><rect x="58" y="56" width="8" height="8" fill="#FFD23D"/><rect x="66" y="56" width="8" height="8" fill="#FFD23D"/><rect x="74" y="56" width="8" height="8" fill="#FF8A3D"/><rect x="82" y="56" width="8" height="8" fill="#FF8A3D"/><rect x="90" y="56" width="8" height="8" fill="#FF6B1A"/><rect x="34" y="64" width="8" height="8" fill="#FF6B1A"/><rect x="42" y="64" width="8" height="8" fill="#FF8A3D"/><rect x="50" y="64" width="8" height="8" fill="#FFD23D"/><rect x="58" y="64" width="8" height="8" fill="#FFD23D"/><rect x="66" y="64" width="8" height="8" fill="#FFD23D"/><rect x="74" y="64" width="8" height="8" fill="#FFD23D"/><rect x="82" y="64" width="8" height="8" fill="#FF8A3D"/><rect x="90" y="64" width="8" height="8" fill="#FF6B1A"/><rect x="34" y="72" width="8" height="8" fill="#FF6B1A"/><rect x="42" y="72" width="8" height="8" fill="#FF8A3D"/><rect x="50" y="72" width="8" height="8" fill="#FFD23D"/><rect x="58" y="72" width="8" height="8" fill="#FFD23D"/><rect x="66" y="72" width="8" height="8" fill="#FFD23D"/><rect x="74" y="72" width="8" height="8" fill="#FFD23D"/><rect x="82" y="72" width="8" height="8" fill="#FF8A3D"/><rect x="90" y="72" width="8" height="8" fill="#FF8A3D"/><rect x="34" y="80" width="8" height="8" fill="#FF6B1A"/><rect x="42" y="80" width="8" height="8" fill="#FF8A3D"/><rect x="50" y="80" width="8" height="8" fill="#FF8A3D"/><rect x="58" y="80" width="8" height="8" fill="#FFD23D"/><rect x="66" y="80" width="8" height="8" fill="#FFD23D"/><rect x="74" y="80" width="8" height="8" fill="#FFD23D"/><rect x="82" y="80" width="8" height="8" fill="#FFD23D"/><rect x="90" y="80" width="8" height="8" fill="#FF8A3D"/><rect x="42" y="88" width="8" height="8" fill="#FF6B1A"/><rect x="50" y="88" width="8" height="8" fill="#FF8A3D"/><rect x="58" y="88" width="8" height="8" fill="#FF8A3D"/><rect x="66" y="88" width="8" height="8" fill="#FFD23D"/><rect x="74" y="88" width="8" height="8" fill="#FFD23D"/><rect x="82" y="88" width="8" height="8" fill="#FF8A3D"/><rect x="90" y="88" width="8" height="8" fill="#FF6B1A"/><rect x="50" y="96" width="8" height="8" fill="#FF6B1A"/><rect x="58" y="96" width="8" height="8" fill="#FF8A3D"/><rect x="66" y="96" width="8" height="8" fill="#FF8A3D"/><rect x="74" y="96" width="8" height="8" fill="#FF8A3D"/><rect x="82" y="96" width="8" height="8" fill="#FF6B1A"/><rect x="106" y="24" width="8" height="8" fill="#FF6B1A"/><rect x="98" y="40" width="8" height="8" fill="#FF8A3D"/><rect x="26" y="44" width="8" height="8" fill="#FF6B1A"/></g>
<g class="hbf hbf2"><rect x="74" y="8" width="8" height="8" fill="#FF6B1A"/><rect x="74" y="16" width="8" height="8" fill="#FF6B1A"/><rect x="66" y="24" width="8" height="8" fill="#FF6B1A"/><rect x="74" y="24" width="8" height="8" fill="#FF8A3D"/><rect x="66" y="32" width="8" height="8" fill="#FF6B1A"/><rect x="74" y="32" width="8" height="8" fill="#FF8A3D"/><rect x="58" y="40" width="8" height="8" fill="#FF6B1A"/><rect x="66" y="40" width="8" height="8" fill="#FF8A3D"/><rect x="74" y="40" width="8" height="8" fill="#FF8A3D"/><rect x="50" y="48" width="8" height="8" fill="#FF6B1A"/><rect x="58" y="48" width="8" height="8" fill="#FF8A3D"/><rect x="66" y="48" width="8" height="8" fill="#FF8A3D"/><rect x="74" y="48" width="8" height="8" fill="#FFD23D"/><rect x="82" y="48" width="8" height="8" fill="#FF6B1A"/><rect x="42" y="56" width="8" height="8" fill="#FF6B1A"/><rect x="50" y="56" width="8" height="8" fill="#FF8A3D"/><rect x="58" y="56" width="8" height="8" fill="#FFD23D"/><rect x="66" y="56" width="8" height="8" fill="#FFD23D"/><rect x="74" y="56" width="8" height="8" fill="#FF8A3D"/><rect x="82" y="56" width="8" height="8" fill="#FF8A3D"/><rect x="90" y="56" width="8" height="8" fill="#FF6B1A"/><rect x="42" y="64" width="8" height="8" fill="#FF6B1A"/><rect x="50" y="64" width="8" height="8" fill="#FF8A3D"/><rect x="58" y="64" width="8" height="8" fill="#FFD23D"/><rect x="66" y="64" width="8" height="8" fill="#FFD23D"/><rect x="74" y="64" width="8" height="8" fill="#FFD23D"/><rect x="82" y="64" width="8" height="8" fill="#FF8A3D"/><rect x="90" y="64" width="8" height="8" fill="#FF6B1A"/><rect x="34" y="72" width="8" height="8" fill="#FF6B1A"/><rect x="42" y="72" width="8" height="8" fill="#FF8A3D"/><rect x="50" y="72" width="8" height="8" fill="#FFD23D"/><rect x="58" y="72" width="8" height="8" fill="#FFD23D"/><rect x="66" y="72" width="8" height="8" fill="#FFD23D"/><rect x="74" y="72" width="8" height="8" fill="#FFD23D"/><rect x="82" y="72" width="8" height="8" fill="#FF8A3D"/><rect x="90" y="72" width="8" height="8" fill="#FF6B1A"/><rect x="34" y="80" width="8" height="8" fill="#FF6B1A"/><rect x="42" y="80" width="8" height="8" fill="#FF8A3D"/><rect x="50" y="80" width="8" height="8" fill="#FF8A3D"/><rect x="58" y="80" width="8" height="8" fill="#FFD23D"/><rect x="66" y="80" width="8" height="8" fill="#FFD23D"/><rect x="74" y="80" width="8" height="8" fill="#FFD23D"/><rect x="82" y="80" width="8" height="8" fill="#FF8A3D"/><rect x="90" y="80" width="8" height="8" fill="#FF6B1A"/><rect x="42" y="88" width="8" height="8" fill="#FF6B1A"/><rect x="50" y="88" width="8" height="8" fill="#FF8A3D"/><rect x="58" y="88" width="8" height="8" fill="#FF8A3D"/><rect x="66" y="88" width="8" height="8" fill="#FFD23D"/><rect x="74" y="88" width="8" height="8" fill="#FF8A3D"/><rect x="82" y="88" width="8" height="8" fill="#FF8A3D"/><rect x="90" y="88" width="8" height="8" fill="#FF6B1A"/><rect x="50" y="96" width="8" height="8" fill="#FF6B1A"/><rect x="58" y="96" width="8" height="8" fill="#FF8A3D"/><rect x="66" y="96" width="8" height="8" fill="#FF8A3D"/><rect x="74" y="96" width="8" height="8" fill="#FF8A3D"/><rect x="82" y="96" width="8" height="8" fill="#FF6B1A"/><rect x="26" y="28" width="8" height="8" fill="#FF6B1A"/><rect x="34" y="48" width="8" height="8" fill="#FF8A3D"/><rect x="106" y="56" width="8" height="8" fill="#FF8A3D"/></g>
<g class="hbf hbf3"><rect x="66" y="8" width="8" height="8" fill="#FF6B1A"/><rect x="58" y="16" width="8" height="8" fill="#FF6B1A"/><rect x="66" y="16" width="8" height="8" fill="#FF8A3D"/><rect x="58" y="24" width="8" height="8" fill="#FF6B1A"/><rect x="66" y="24" width="8" height="8" fill="#FF8A3D"/><rect x="82" y="24" width="8" height="8" fill="#FF6B1A"/><rect x="50" y="32" width="8" height="8" fill="#FF6B1A"/><rect x="58" y="32" width="8" height="8" fill="#FF8A3D"/><rect x="66" y="32" width="8" height="8" fill="#FF8A3D"/><rect x="82" y="32" width="8" height="8" fill="#FF6B1A"/><rect x="50" y="40" width="8" height="8" fill="#FF6B1A"/><rect x="58" y="40" width="8" height="8" fill="#FF8A3D"/><rect x="66" y="40" width="8" height="8" fill="#FFD23D"/><rect x="74" y="40" width="8" height="8" fill="#FF8A3D"/><rect x="82" y="40" width="8" height="8" fill="#FF8A3D"/><rect x="42" y="48" width="8" height="8" fill="#FF6B1A"/><rect x="50" y="48" width="8" height="8" fill="#FF8A3D"/><rect x="58" y="48" width="8" height="8" fill="#FFD23D"/><rect x="66" y="48" width="8" height="8" fill="#FFD23D"/><rect x="74" y="48" width="8" height="8" fill="#FF8A3D"/><rect x="82" y="48" width="8" height="8" fill="#FF8A3D"/><rect x="90" y="48" width="8" height="8" fill="#FF6B1A"/><rect x="42" y="56" width="8" height="8" fill="#FF6B1A"/><rect x="50" y="56" width="8" height="8" fill="#FF8A3D"/><rect x="58" y="56" width="8" height="8" fill="#FFD23D"/><rect x="66" y="56" width="8" height="8" fill="#FFD23D"/><rect x="74" y="56" width="8" height="8" fill="#FFD23D"/><rect x="82" y="56" width="8" height="8" fill="#FF8A3D"/><rect x="90" y="56" width="8" height="8" fill="#FF6B1A"/><rect x="34" y="64" width="8" height="8" fill="#FF6B1A"/><rect x="42" y="64" width="8" height="8" fill="#FF8A3D"/><rect x="50" y="64" width="8" height="8" fill="#FFD23D"/><rect x="58" y="64" width="8" height="8" fill="#FFD23D"/><rect x="66" y="64" width="8" height="8" fill="#FFD23D"/><rect x="74" y="64" width="8" height="8" fill="#FFD23D"/><rect x="82" y="64" width="8" height="8" fill="#FF8A3D"/><rect x="90" y="64" width="8" height="8" fill="#FF6B1A"/><rect x="34" y="72" width="8" height="8" fill="#FF6B1A"/><rect x="42" y="72" width="8" height="8" fill="#FF8A3D"/><rect x="50" y="72" width="8" height="8" fill="#FFD23D"/><rect x="58" y="72" width="8" height="8" fill="#FFD23D"/><rect x="66" y="72" width="8" height="8" fill="#FFD23D"/><rect x="74" y="72" width="8" height="8" fill="#FFD23D"/><rect x="82" y="72" width="8" height="8" fill="#FF8A3D"/><rect x="90" y="72" width="8" height="8" fill="#FF6B1A"/><rect x="34" y="80" width="8" height="8" fill="#FF6B1A"/><rect x="42" y="80" width="8" height="8" fill="#FF8A3D"/><rect x="50" y="80" width="8" height="8" fill="#FF8A3D"/><rect x="58" y="80" width="8" height="8" fill="#FFD23D"/><rect x="66" y="80" width="8" height="8" fill="#FFD23D"/><rect x="74" y="80" width="8" height="8" fill="#FFD23D"/><rect x="82" y="80" width="8" height="8" fill="#FF8A3D"/><rect x="90" y="80" width="8" height="8" fill="#FF6B1A"/><rect x="42" y="88" width="8" height="8" fill="#FF6B1A"/><rect x="50" y="88" width="8" height="8" fill="#FF8A3D"/><rect x="58" y="88" width="8" height="8" fill="#FF8A3D"/><rect x="66" y="88" width="8" height="8" fill="#FFD23D"/><rect x="74" y="88" width="8" height="8" fill="#FF8A3D"/><rect x="82" y="88" width="8" height="8" fill="#FF6B1A"/><rect x="50" y="96" width="8" height="8" fill="#FF6B1A"/><rect x="58" y="96" width="8" height="8" fill="#FF8A3D"/><rect x="66" y="96" width="8" height="8" fill="#FF8A3D"/><rect x="74" y="96" width="8" height="8" fill="#FF8A3D"/><rect x="82" y="96" width="8" height="8" fill="#FF6B1A"/><rect x="106" y="40" width="8" height="8" fill="#FF6B1A"/><rect x="18" y="32" width="8" height="8" fill="#FF8A3D"/></g>
<rect class="hbe" x="100" y="64" width="4" height="4" fill="#FFD23D"/>
<rect class="hbe hbe2" x="32" y="56" width="4" height="4" fill="#FF8A3D"/>
<rect class="hbe hbe3" x="86" y="30" width="4" height="4" fill="#FF6B1A"/>
<path d="M22 112 L118 112 L106 158 L34 158 Z" fill="#1B1E24"/>
<path d="M50 118 L47 152 M70 118 L70 152 M90 118 L93 152" stroke="#FF6B1A" stroke-width="3" stroke-linecap="round" opacity="0.45" fill="none"/>
<rect x="14" y="100" width="112" height="13" rx="5" fill="#2A2F37"/>
<circle cx="44" cy="164" r="7" fill="#2A2F37"/>
<circle cx="96" cy="164" r="7" fill="#2A2F37"/>
</svg>